<?xml version="1.0" encoding="UTF-8" standalone="no"?>
<!DOCTYPE svg PUBLIC "-//W3C//DTD SVG 1.1//EN" "http://www.w3.org/Graphics/SVG/1.1/DTD/svg11.dtd">
<svg xmlns="http://www.w3.org/2000/svg" version="1.1" viewBox="0.00 0.00 565.00 153.00">
<path fill="#0c2d7d" d="   M 113.68 21.44   C 111.35 39.81 82.66 58.42 67.41 65.53   Q 63.35 67.43 59.59 67.39   A 1.63 1.63 0.0 0 1 58.38 64.69   C 59.82 63.05 61.33 61.32 63.10 60.00   C 69.32 55.39 107.49 27.64 95.24 18.26   C 89.30 13.71 72.34 13.17 64.76 13.44   C 62.02 13.53 55.26 13.56 53.44 11.45   A 1.48 1.48 0.0 0 1 53.94 9.13   C 58.40 7.08 61.69 6.40 67.13 5.41   C 77.61 3.51 116.24 1.26 113.68 21.44   Z"/>
<path fill="#0c2d7d" d="   M 148.68 56.35   C 150.14 56.73 152.80 57.66 153.21 59.29   A 2.05 2.04 77.9 0 1 151.60 61.79   C 148.40 62.39 145.23 62.79 141.78 62.71   Q 128.71 62.40 117.56 64.49   C 107.88 66.30 114.92 77.72 118.28 81.48   Q 125.78 89.88 136.86 103.40   C 140.77 108.18 144.68 114.77 143.56 120.97   C 139.90 141.16 91.87 134.46 78.24 131.77   Q 76.00 131.32 74.86 129.94   A 2.09 2.09 0.0 0 1 76.05 126.56   Q 80.43 125.66 85.44 125.56   Q 91.56 125.44 110.24 124.49   Q 117.03 124.14 122.77 122.09   C 130.51 119.31 121.85 108.53 119.02 105.23   Q 107.55 91.86 101.79 84.45   C 95.46 76.31 90.27 64.91 101.83 58.06   C 114.51 50.55 134.96 52.79 148.68 56.35   Z"/>
<path fill="#0c2d7d" d="   M 280.64 95.18   C 286.74 68.42 314.34 66.14 336.50 69.09   C 352.43 71.21 359.75 80.57 356.58 96.72   Q 353.13 114.31 349.23 132.43   A 3.58 3.57 -83.9 0 1 345.74 135.25   L 332.18 135.25   Q 331.34 135.25 331.51 134.43   L 335.19 116.76   A 0.43 0.42 6.0 0 0 334.77 116.25   L 293.57 116.25   A 0.53 0.53 0.0 0 0 293.05 116.67   L 289.38 134.71   A 0.67 0.67 0.0 0 1 288.72 135.25   L 274.53 135.25   A 2.02 2.02 0.0 0 1 272.55 132.83   Q 276.31 114.21 280.64 95.18   Z   M 313.75 80.50   C 300.10 82.51 297.75 93.76 295.66 105.25   Q 295.57 105.74 296.06 105.74   Q 314.49 105.78 332.90 105.74   C 335.42 105.73 337.32 104.98 338.11 102.58   C 345.52 79.94 331.32 77.92 313.75 80.50   Z"/>
<path fill="#0c2d7d" d="   M 499.28 116.69   L 495.55 134.78   A 0.59 0.58 -83.9 0 1 494.98 135.25   L 480.76 135.25   A 2.02 2.02 0.0 0 1 478.78 132.84   Q 482.47 114.06 486.98 95.19   Q 492.14 73.59 514.04 69.66   Q 530.72 66.66 547.24 69.98   C 561.25 72.80 565.56 84.69 562.86 97.52   Q 559.12 115.31 555.36 132.59   A 3.38 3.38 0.0 0 1 552.06 135.25   L 538.29 135.25   Q 537.55 135.25 537.70 134.53   L 541.38 116.83   Q 541.51 116.25 540.91 116.25   L 499.82 116.25   Q 499.37 116.25 499.28 116.69   Z   M 517.11 81.24   C 505.48 84.53 503.66 95.05 501.88 105.23   Q 501.79 105.73 502.30 105.73   Q 520.69 105.79 539.08 105.73   C 541.74 105.72 543.46 105.06 544.27 102.51   C 545.98 97.15 548.36 87.40 543.37 83.15   C 537.52 78.18 523.91 79.31 517.11 81.24   Z"/>
<path fill="#0c2d7d" d="   M 227.12 124.97   Q 242.31 125.04 257.50 125.00   C 263.43 124.98 260.97 131.64 260.18 134.73   Q 260.05 135.25 259.52 135.25   Q 239.48 135.28 219.51 135.16   C 203.95 135.06 190.46 129.27 190.02 111.76   C 189.51 91.40 202.15 74.25 222.66 70.27   Q 227.43 69.35 239.02 69.27   Q 255.57 69.17 272.12 69.29   Q 272.66 69.29 272.59 69.82   C 271.95 75.23 270.94 79.63 264.93 79.67   Q 250.62 79.78 236.29 79.75   Q 229.00 79.74 225.81 80.70   C 214.73 84.03 209.65 97.78 209.26 108.27   C 208.78 121.28 215.38 124.91 227.12 124.97   Z"/>
<path fill="#0c2d7d" d="   M 393.73 79.75   L 366.76 79.75   A 0.48 0.47 -83.6 0 1 366.30 79.17   C 367.20 75.28 366.77 69.42 372.50 69.39   Q 411.37 69.24 450.24 69.23   Q 450.81 69.23 450.74 69.80   C 450.25 73.85 449.95 79.69 444.50 79.71   Q 429.00 79.77 413.45 79.75   A 0.71 0.71 0.0 0 0 412.74 80.32   Q 407.33 106.02 401.80 131.76   C 400.71 136.80 387.28 135.29 383.18 135.22   Q 382.71 135.21 382.81 134.76   L 394.34 80.50   A 0.62 0.62 0.0 0 0 393.73 79.75   Z"/>
<path fill="#0c2d7d" d="   M 456.54 69.84   A 0.44 0.44 0.0 0 1 456.97 69.50   L 471.35 69.50   A 1.97 1.97 0.0 0 1 473.28 71.87   L 471.77 79.18   Q 471.65 79.75 471.07 79.75   L 455.09 79.75   A 0.50 0.50 0.0 0 1 454.60 79.15   L 456.54 69.84   Z"/>
<path fill="#0c2d7d" d="   M 25.50 133.07   C 37.80 132.57 55.21 118.11 62.82 109.57   C 69.02 102.62 75.75 89.88 61.72 86.05   C 49.71 82.78 37.15 83.49 24.82 83.29   Q 22.27 83.25 20.47 81.98   A 1.59 1.59 0.0 0 1 20.59 79.29   Q 22.97 77.93 25.49 77.21   Q 45.05 71.58 65.23 74.53   C 73.33 75.71 85.84 79.48 87.10 88.54   C 88.00 95.00 83.00 104.11 79.04 109.31   C 63.35 129.92 35.85 143.48 11.29 150.04   C 9.17 150.60 1.44 152.51 2.47 147.97   Q 3.27 144.45 8.78 134.55   Q 19.93 114.54 33.76 96.28   C 35.38 94.14 38.56 90.85 41.56 91.69   A 0.85 0.85 0.0 0 1 42.17 92.43   Q 42.47 95.95 40.74 98.72   C 36.29 105.86 23.45 126.46 24.68 132.43   A 0.80 0.79 -6.7 0 0 25.50 133.07   Z"/>
<path fill="#0c2d7d" d="   M 453.76 84.50   L 470.16 84.50   A 0.38 0.38 0.0 0 1 470.53 84.96   L 460.01 134.95   A 0.38 0.38 0.0 0 1 459.64 135.25   L 443.13 135.25   A 0.38 0.38 0.0 0 1 442.76 134.79   L 453.39 84.80   A 0.38 0.38 0.0 0 1 453.76 84.50   Z"/>
</svg>